<svg preserveAspectRatio="none" width="100%" height="100%" overflow="visible" style="display: block;" viewBox="0 0 28.4444 28.4444" fill="none" xmlns="http://www.w3.org/2000/svg">
<g id="Vector">
<path d="M15.5017 19.8395C17.635 19.3915 19.2564 17.9408 19.2564 16.2981C19.2564 13.3247 16.4574 12.8546 14.8004 12.5764C14.7335 12.5651 14.6686 12.5542 14.6057 12.5435C14.4828 12.5197 14.3208 12.5003 14.1385 12.4785C13.3401 12.383 12.1524 12.241 12.1524 11.4768C12.1524 10.6875 12.9844 10.0475 14.0084 10.0475C15.5017 10.0475 15.9924 10.6661 15.9924 10.9648H18.8724C18.8724 9.66347 17.7417 8.29813 15.5017 7.87147V6.37813H12.707V7.87147C10.6377 8.31947 9.12302 9.77013 9.12302 11.4768C9.12302 13.6741 11.427 14.2715 12.7924 14.5488C12.9044 14.5712 13.06 14.5926 13.2438 14.6179C14.2849 14.7613 16.227 15.0288 16.227 16.2981C16.227 17.0021 15.2457 17.6635 14.1364 17.6635C12.0884 17.6635 11.9604 16.0848 11.9604 16.0848H8.93102C8.93102 17.4075 10.147 19.3061 12.707 19.8395V21.3328H15.5017V19.8395Z" fill="var(--fill-0, #0A4B96)"/>
<path fill-rule="evenodd" clip-rule="evenodd" d="M14.2222 28.4444C6.36622 28.4444 0 22.0764 0 14.2204C0 6.36622 6.36622 0 14.2222 0C22.0764 0 28.4444 6.36622 28.4444 14.2204C28.4444 22.0764 22.0764 28.4444 14.2222 28.4444ZM3.55556 14.2204C3.55556 20.1031 8.33956 24.8889 14.2222 24.8889C20.1031 24.8889 24.8889 20.1031 24.8889 14.2204C24.8889 8.33956 20.1031 3.55556 14.2222 3.55556C8.33956 3.55556 3.55556 8.33956 3.55556 14.2204Z" fill="var(--fill-0, #0A4B96)"/>
</g>
</svg>
