<svg preserveAspectRatio="none" width="100%" height="100%" overflow="visible" style="display: block;" viewBox="0 0 9.6714 14.9507" fill="none" xmlns="http://www.w3.org/2000/svg">
<path id="Ellipse 1" fill-rule="evenodd" clip-rule="evenodd" d="M6.929 6.49093C6.4343 5.59397 6.38363 4.55543 6.70316 3.65389C6.80721 3.36043 6.69589 3.03076 6.43765 2.87527L1.805 0.0849052C1.50302 -0.0969061 1.11297 0.0228268 0.96129 0.35281C0.36876 1.64013 0.0265009 3.07832 0 4.59866L0.000296431 4.99191C0.00508675 5.25296 0.0192206 5.51165 0.0424252 5.76764C0.0619896 5.98403 0.216679 6.15925 0.41811 6.20618C1.67347 6.49877 2.81351 7.32081 3.51068 8.58422C4.20416 9.84183 4.31982 11.2839 3.94691 12.5734C3.88521 12.7861 3.96134 13.0149 4.13472 13.1421C4.28213 13.2504 4.43248 13.3545 4.58567 13.4542L5.14893 13.7937C6.3217 14.447 7.63657 14.8551 9.03281 14.9494C9.3794 14.9731 9.67128 14.6775 9.67128 14.3113C9.6714 12.9811 9.6714 9.99489 9.6714 8.72942C9.6714 8.41572 9.45508 8.15157 9.16089 8.1015C8.25875 7.94724 7.42365 7.38697 6.929 6.49093" fill="var(--fill-0, #5FBBFF)"/>
</svg>
