<svg preserveAspectRatio="none" width="100%" height="100%" overflow="visible" style="display: block;" viewBox="0 0 16.7097 7.04422" fill="none" xmlns="http://www.w3.org/2000/svg">
<path id="Shape 1" fill-rule="evenodd" clip-rule="evenodd" d="M0.312821 4.29505L5.0408 6.96151C5.30891 7.11262 5.64511 7.04487 5.84268 6.81256C6.43787 6.11262 7.33623 5.66574 8.34353 5.66574C9.35179 5.66574 10.2509 6.11339 10.8462 6.81427C11.0435 7.04673 11.3794 7.11473 11.6478 6.96378L16.4 4.28826C16.7148 4.11071 16.804 3.71211 16.6007 3.4186C16.3701 3.08573 16.1189 2.76754 15.8488 2.46569C15.133 1.66636 14.2688 1.0049 13.3255 0.47316L12.6925 0.116026L12.653 0.0957779C12.6158 0.0785708 12.5786 0.0614657 12.5409 0.044473C12.3438 -0.0442976 12.1106 0.00284326 11.9643 0.158942C11.0681 1.11438 9.7785 1.71485 8.34353 1.71485C6.91248 1.71485 5.62595 1.11757 4.72988 0.166362C4.58416 0.0114978 4.35276 -0.0339999 4.15728 0.0549748L4.15375 0.0566282L3.41346 0.473374C2.22453 1.14282 1.16375 2.01943 0.350385 3.09573C0.265373 3.20825 0.182999 3.32262 0.102957 3.43864C-0.0958837 3.72731 0.00356533 4.12087 0.312821 4.29505" fill="var(--fill-0, #294DFF)"/>
</svg>
