<svg preserveAspectRatio="none" width="100%" height="100%" overflow="visible" style="display: block;" viewBox="0 0 9.67128 14.9507" fill="none" xmlns="http://www.w3.org/2000/svg">
<path id="Ellipse 2" fill-rule="evenodd" clip-rule="evenodd" d="M3.23368 2.87519C2.9754 3.0309 2.86406 3.3601 2.96818 3.65381C3.28794 4.55521 3.23726 5.59389 2.74234 6.4906C2.24804 7.38689 1.41246 7.94717 0.510513 8.10131C0.216504 8.15149 0 8.41573 0 8.7295C0 9.99481 0.000177068 12.981 0.000177068 14.3112C0.000177068 14.6773 0.291998 14.973 0.63876 14.9493C2.03483 14.855 3.34976 14.4466 4.52241 13.7936L5.08567 13.454C5.23903 13.3544 5.38938 13.2504 5.53679 13.1419C5.70989 13.0147 5.78637 12.7858 5.72484 12.5733C5.35158 11.2838 5.46713 9.8416 6.16089 8.58415C6.85777 7.32059 7.99787 6.49883 9.25329 6.2059C9.45473 6.15917 9.60946 5.98379 9.62898 5.76756C9.65217 5.51177 9.66626 5.25329 9.67093 4.9922L9.67128 4.59802C9.64496 3.07788 9.30246 1.63975 8.71006 0.352589C8.55842 0.0229124 8.16854 -0.0968746 7.8665 0.0848283L3.23368 2.87519Z" fill="var(--fill-0, #1F95FF)"/>
</svg>
