<svg preserveAspectRatio="none" width="100%" height="100%" overflow="visible" style="display: block;" viewBox="0 0 14 16" fill="none" xmlns="http://www.w3.org/2000/svg">
<path id="icons/16/dark/report" fill-rule="evenodd" clip-rule="evenodd" d="M5 10H9C9.552 10 10 9.552 10 9C10 8.448 9.552 8 9 8H5C4.448 8 4 8.448 4 9C4 9.552 4.448 10 5 10V10ZM5 6H9C9.552 6 10 5.552 10 5C10 4.448 9.552 4 9 4H5C4.448 4 4 4.448 4 5C4 5.552 4.448 6 5 6V6ZM2 14H12V2H2V14ZM14 2C14 0.895431 13.1046 0 12 0L2 0C0.89543 0 0 0.895431 0 2L0 14C0 15.1046 0.895431 16 2 16H12C13.1046 16 14 15.1046 14 14V2Z" fill="var(--fill-0, #6B7280)"/>
</svg>
