<svg preserveAspectRatio="none" width="100%" height="100%" overflow="visible" style="display: block;" viewBox="0 0 18 16" fill="none" xmlns="http://www.w3.org/2000/svg">
<path id="icons/16/blue/dashboard" fill-rule="evenodd" clip-rule="evenodd" d="M9 14C7.897 14 7 13.103 7 12C7 10.897 7.897 10 9 10C10.103 10 11 10.897 11 12C11 13.103 10.103 14 9 14M10 8.141V5C10 4.448 9.552 4 9 4C8.448 4 8 4.448 8 5V8.141C6.278 8.587 5 10.138 5 12C5 14.209 6.791 16 9 16C11.209 16 13 14.209 13 12C13 10.138 11.722 8.587 10 8.141M9 0C4.029 0 0 4.029 0 9C0 9.552 0.448 10 1 10C1.552 10 2 9.552 2 9C2 5.14 5.14 2 9 2C12.86 2 16 5.14 16 9C16 9.552 16.448 10 17 10C17.552 10 18 9.552 18 9C18 4.029 13.971 0 9 0" fill="var(--fill-0, #6B7280)"/>
</svg>
