<svg preserveAspectRatio="none" width="100%" height="100%" overflow="visible" style="display: block;" viewBox="0 0 12 16.9997" fill="none" xmlns="http://www.w3.org/2000/svg">
<path id="Vector" d="M6 2.65625C4.19523 2.65625 2.72727 4.08598 2.72727 5.84375C2.72727 6.13727 2.97136 6.375 3.27273 6.375C3.57409 6.375 3.81818 6.13727 3.81818 5.84375C3.81818 4.67168 4.79727 3.71875 6 3.71875C6.30136 3.71875 6.54545 3.48102 6.54545 3.1875C6.54545 2.89398 6.30136 2.65625 6 2.65625ZM3.27477 15.2459C3.27477 15.3505 3.30648 15.4524 3.36614 15.5394L4.2017 16.7626C4.30295 16.9107 4.47341 16.9997 4.6558 16.9997H7.34386C7.52659 16.9997 7.69705 16.9107 7.79795 16.7626L8.63352 15.5394C8.69284 15.4524 8.72455 15.3501 8.72489 15.2459L8.72659 13.8122H3.27341L3.27477 15.2459ZM6 0C2.51318 0 0 2.75486 0 5.84375C0 7.31697 0.560795 8.66104 1.485 9.68801C2.05227 10.3185 2.94205 11.6404 3.27205 12.748V12.75H4.90841V12.746C4.90807 12.5876 4.88386 12.4303 4.83511 12.2788C4.64455 11.6875 4.05716 10.1283 2.71568 8.63746C2.01545 7.85951 1.64114 6.87271 1.63807 5.84375C1.63125 3.39867 3.67227 1.59375 6 1.59375C8.40614 1.59375 10.3636 3.50027 10.3636 5.84375C10.3636 6.87205 9.98046 7.86416 9.28466 8.63746C7.95136 10.1187 7.36125 11.6746 7.16761 12.2719C7.11764 12.4255 7.09212 12.5856 7.09193 12.7467V12.75H8.7283V12.7483C9.0583 11.6404 9.94807 10.3185 10.5153 9.68834C11.4392 8.66104 12 7.31697 12 5.84375C12 2.61641 9.31364 0 6 0Z" fill="var(--fill-0, #6B7280)"/>
</svg>
