<svg preserveAspectRatio="none" width="100%" height="100%" overflow="visible" style="display: block;" viewBox="0 0 16 16" fill="none" xmlns="http://www.w3.org/2000/svg">
<path id="icons/16/dark/members" fill-rule="evenodd" clip-rule="evenodd" d="M11 14C9.33 14 8.59 13.69 8.26 13.42C8 13.2 8 13 8 13C8 11.72 8.8 10.63 9.93 10.2C10.26 10.07 10.62 10 11 10C12.66 10 14 11.34 14 13C14 13 14 14 11 14M11 4C12.1 4 13 4.9 13 6C13 7.1 12.1 8 11 8C9.9 8 9 7.1 9 6C9 4.9 9.9 4 11 4M6.11 11.94C5.8 11.98 5.43 12 5 12C2 12 2 11 2 11C2 9.34 3.34 8 5 8C6.07 8 7 8.55 7.53 9.39C6.83 10.08 6.33 10.95 6.11 11.94M5 2C6.1 2 7 2.9 7 4C7 5.1 6.1 6 5 6C3.9 6 3 5.1 3 4C3 2.9 3.9 2 5 2M13.8 8.85C14.54 8.13 15 7.12 15 6C15 3.79 13.21 2 11 2C10.18 2 9.41 2.25 8.77 2.68C8.23 1.12 6.75 0 5 0C2.79 0 1 1.79 1 4C1 5.12 1.46 6.13 2.2 6.85C0.88 7.75 0 9.28 0 11C0 11.7 0.36 14 5 14C5.44 14 5.83 13.98 6.2 13.94C6.58 14.86 7.73 16 11 16C15.64 16 16 13.7 16 13C16 11.28 15.12 9.75 13.8 8.85" fill="var(--fill-0, #6B7280)"/>
</svg>
