<svg preserveAspectRatio="none" width="100%" height="100%" overflow="visible" style="display: block;" viewBox="0 0 16 16" fill="none" xmlns="http://www.w3.org/2000/svg">
<path id="icons/16/dark/payment" d="M8 0C12.418 0 16 3.58102 16 7.99902C16 12.418 12.418 16 8 16C3.58101 16 1.26228e-05 12.418 0 7.99902C0 3.58102 3.581 0 8 0ZM8 2C4.691 2 2 4.69102 2 7.99902C2.00001 11.308 4.69101 14 8 14C11.308 14 14 11.308 14 7.99902C14 4.69102 11.308 2 8 2ZM8.71973 4.42773C9.97971 4.66774 10.6152 5.43597 10.6152 6.16797H8.99609C8.99609 5.99998 8.71974 5.65142 7.87988 5.65137C7.30388 5.65137 6.83594 6.01205 6.83594 6.45605C6.83639 6.9837 7.8439 6.98368 8.21582 7.05566C9.12785 7.21166 10.832 7.42804 10.832 9.16797C10.8319 10.0919 9.91961 10.9082 8.71973 11.1602V12H7.14746V11.1602C5.70765 10.8601 5.02353 9.79182 5.02344 9.04785H6.72754C6.72862 9.06043 6.80842 9.93555 7.95215 9.93555C8.57582 9.93537 9.12768 9.56377 9.12793 9.16797C9.12793 8.32797 7.61531 8.26759 7.19531 8.18359C6.42734 8.02757 5.13208 7.69155 5.13184 6.45605C5.13184 5.49612 5.98358 4.67979 7.14746 4.42773V3.58789H8.71973V4.42773Z" fill="var(--fill-0, #6B7280)"/>
</svg>
