<svg preserveAspectRatio="none" width="100%" height="100%" overflow="visible" style="display: block;" viewBox="0 0 16.0001 16" fill="none" xmlns="http://www.w3.org/2000/svg">
<path id="icons/16/dark/task" d="M10.9893 0C11.5408 0.000263548 11.9873 0.447878 11.9873 1C11.9873 1.55212 11.5408 1.99974 10.9893 2L1.99805 1.99902V13.999L13.9854 14V9C13.9854 8.44782 14.4328 8.00017 14.9844 8C15.5361 8 15.9834 8.44772 15.9834 9V14C15.9834 15.1046 15.088 16 13.9834 16H2C0.895431 16 0 15.1046 0 14V2C0 0.895431 0.895431 0 2 0H10.9893ZM14.2393 2.30273C14.6418 1.89973 15.2957 1.89973 15.6982 2.30273C16.1007 2.70574 16.1007 3.35975 15.6982 3.7627L8.78516 10.6826C8.67027 10.7976 8.53448 10.8709 8.39062 10.9209C8.00902 11.0909 7.54802 11.0259 7.23535 10.7129L4.2998 7.77344C3.89424 7.36744 3.89423 6.70968 4.2998 6.30469C4.70539 5.89869 5.36299 5.89869 5.76758 6.30469L8.00488 8.54395L14.2393 2.30273Z" fill="var(--fill-0, #6B7280)"/>
</svg>
