<svg preserveAspectRatio="none" width="100%" height="100%" overflow="visible" style="display: block;" viewBox="0 0 16 16" fill="none" xmlns="http://www.w3.org/2000/svg">
<path id="icons/16/dark/map" d="M11 2L14.6289 0.548828L14.7393 0.511719C15.2225 0.380652 15.7382 0.629357 15.9287 1.10547C15.9759 1.22344 15.9999 1.3495 16 1.47656V14L11 16L5 14L1.37109 15.4512L1.26074 15.4883C0.777545 15.6193 0.261774 15.3706 0.0712891 14.8945C0.0240992 14.7766 5.97347e-05 14.6505 0 14.5234V2.5L5 0L11 2ZM6 12C6 12.0746 5.99009 12.1469 5.97461 12.2168L10 13.5576V4C10 3.92516 10.0088 3.85237 10.0244 3.78223L6 2.44141V12ZM11.9707 3.76465C11.989 3.84022 12 3.91882 12 4V13.4463L14 12.6465V2.9541L11.9707 3.76465ZM2 3.73633V13.0459L4.02832 12.2344C4.01024 12.1591 4 12.0808 4 12V2.73535L2 3.73633Z" fill="var(--fill-0, #6B7280)"/>
</svg>
