<svg preserveAspectRatio="none" width="100%" height="100%" overflow="visible" style="display: block;" viewBox="0 0 16 16" fill="none" xmlns="http://www.w3.org/2000/svg">
<path id="icons/16/dark/calendar" fill-rule="evenodd" clip-rule="evenodd" d="M14 5H2V3H4C4 3.552 4.448 4 5 4C5.552 4 6 3.552 6 3H10C10 3.552 10.447 4 11 4C11.553 4 12 3.552 12 3H14V5ZM2 14H14V7H2V14ZM12 1C12 0.448 11.553 0 11 0C10.447 0 10 0.448 10 1H6C6 0.448 5.552 0 5 0C4.448 0 4 0.448 4 1H2C0.895431 1 0 1.89543 0 3V14C0 15.1046 0.895431 16 2 16H14C15.1046 16 16 15.1046 16 14V3C16 1.89543 15.1046 1 14 1H12Z" fill="var(--fill-0, #6B7280)"/>
</svg>
