<svg preserveAspectRatio="none" width="100%" height="100%" overflow="visible" style="display: block;" viewBox="0 0 16 16" fill="none" xmlns="http://www.w3.org/2000/svg">
<path id="icons/16/dark/time" fill-rule="evenodd" clip-rule="evenodd" d="M9.5 7C9.224 7 9 7 9 7V4.99C9 4.443 8.557 4 8.01 4H7.99C7.443 4 7 4.443 7 4.99V8.01C7 8.557 7.443 9 7.99 9H11.01C11.557 9 12 8.557 12 8.01V7.99C12 7.443 11.557 7 11.01 7H9.5ZM2 8C2 4.692 4.692 2 8 2C11.309 2 14 4.692 14 8C14 11.309 11.309 14 8 14C4.692 14 2 11.309 2 8ZM0 8C0 12.418 3.582 16 8 16C12.418 16 16 12.418 16 8C16 3.582 12.418 0 8 0C3.582 0 0 3.582 0 8Z" fill="var(--fill-0, #6B7280)"/>
</svg>
