<svg preserveAspectRatio="none" width="100%" height="100%" overflow="visible" style="display: block;" viewBox="0 0 15.879 15.9838" fill="none" xmlns="http://www.w3.org/2000/svg">
<path id="icons/16/dark/activity" fill-rule="evenodd" clip-rule="evenodd" d="M6.121 11.468C6.306 11.746 6.617 11.91 6.947 11.91C6.981 11.91 7.015 11.908 7.05 11.904C7.416 11.866 7.731 11.628 7.868 11.286L9.399 7.459L11.359 8.766C11.605 8.93 11.911 8.976 12.192 8.891C12.474 8.808 12.705 8.602 12.821 8.331L15.798 1.384C16.015 0.88 15.781 0.296 15.277 0.081C14.777 -0.135 14.191 0.098 13.975 0.602L11.467 6.452L9.482 5.129C9.234 4.963 8.922 4.918 8.638 5.007C8.352 5.096 8.121 5.309 8.01 5.586L6.726 8.797L5.788 7.39C5.483 6.934 4.867 6.809 4.411 7.114C3.955 7.418 3.832 8.035 4.136 8.491L6.121 11.468ZM1.984 13.895V0.993C1.984 0.447 1.538 0 0.992 0C0.446 0 0 0.447 0 0.993V13.9838C0 15.0947 0.905287 15.9927 2.01612 15.9837L14.886 15.88C15.432 15.88 15.879 15.433 15.879 14.887C15.879 14.342 15.432 13.895 14.886 13.895H1.984Z" fill="var(--fill-0, #6B7280)"/>
</svg>
