<svg preserveAspectRatio="none" width="100%" height="100%" overflow="visible" style="display: block;" viewBox="0 0 16 16" fill="none" xmlns="http://www.w3.org/2000/svg">
<path id="Vector" fill-rule="evenodd" clip-rule="evenodd" d="M8 11C6.343 11 5 9.657 5 8C5 6.343 6.343 5 8 5C9.657 5 11 6.343 11 8C11 9.657 9.657 11 8 11ZM15.1645 6.8605L13.8395 6.64C13.6865 5.9825 13.4265 5.368 13.0775 4.8135L13.8155 3.7805C14.097 3.3865 14.052 2.8465 13.71 2.504L13.496 2.29C13.1535 1.948 12.6135 1.903 12.2195 2.1845L11.1865 2.9225C10.632 2.5735 10.0175 2.3135 9.36 2.1605L9.1395 0.8355C9.059 0.3535 8.6415 0 8.153 0H7.847C7.3585 0 6.941 0.3535 6.8605 0.8355L6.64 2.1605C5.9825 2.3135 5.368 2.5735 4.8135 2.9225L3.7805 2.1845C3.3865 1.903 2.8465 1.948 2.504 2.29L2.29 2.504C1.948 2.8465 1.903 3.3865 2.1845 3.7805L2.9225 4.8135C2.5735 5.368 2.3135 5.9825 2.1605 6.64L0.8355 6.8605C0.3535 6.941 0 7.3585 0 7.847V8.153C0 8.6415 0.3535 9.059 0.8355 9.1395L2.1605 9.36C2.3135 10.0175 2.5735 10.632 2.9225 11.1865L2.1845 12.2195C1.903 12.6135 1.948 13.1535 2.29 13.496L2.504 13.71C2.8465 14.052 3.3865 14.097 3.7805 13.8155L4.8135 13.0775C5.368 13.4265 5.9825 13.6865 6.64 13.8395L6.8605 15.1645C6.941 15.6465 7.3585 16 7.847 16H8.153C8.6415 16 9.059 15.6465 9.1395 15.1645L9.36 13.8395C10.0175 13.6865 10.632 13.4265 11.1865 13.0775L12.2195 13.8155C12.6135 14.097 13.1535 14.052 13.496 13.71L13.71 13.496C14.052 13.1535 14.097 12.6135 13.8155 12.2195L13.0775 11.1865C13.4265 10.632 13.6865 10.0175 13.8395 9.36L15.1645 9.1395C15.6465 9.059 16 8.6415 16 8.153V7.847C16 7.3585 15.6465 6.941 15.1645 6.8605Z" fill="var(--fill-0, #6B7280)"/>
</svg>
