<svg preserveAspectRatio="none" width="100%" height="100%" overflow="visible" style="display: block;" viewBox="0 0 16 15" fill="none" xmlns="http://www.w3.org/2000/svg">
<path id="Vector" fill-rule="evenodd" clip-rule="evenodd" d="M8.71004 0.398668C8.56179 0.151615 8.29176 0 8 0C7.70824 0 7.43821 0.151615 7.28996 0.398668L5.2465 4.46799L0.678483 5.1208C0.380052 5.16337 0.132085 5.36882 0.0388443 5.65077C-0.0543966 5.93271 0.0232591 6.24225 0.23916 6.44922L3.54569 9.61708L2.76525 14.0898C2.71434 14.3819 2.83656 14.6771 3.08051 14.8513C3.32446 15.0254 3.64782 15.0483 3.91461 14.9103L7.99998 12.7986L12.0853 14.9103C12.1991 14.9692 12.3257 15 12.4543 15C12.6877 15 12.9091 14.8986 13.0596 14.7231C13.21 14.5477 13.2741 14.316 13.2347 14.0898L12.4543 9.61708L15.7608 6.44922C15.9767 6.24225 16.0544 5.93271 15.9612 5.65077C15.8679 5.36882 15.6199 5.16337 15.3215 5.1208L10.7535 4.46799L8.71004 0.398668ZM7.999 3.441L9.43544 6.29994L12.559 6.746L10.3008 8.91051L10.843 12.016L7.99999 10.5473L5.156 12.016L5.69919 8.91051L3.44 6.746L6.56456 6.29994L7.999 3.441Z" fill="var(--fill-0, #6B7280)"/>
</svg>
